{"accessors" : [{"bufferView" : 0, "byteOffset" : 0, "componentType" : 5123, "count" : 1914, "type" : "SCALAR", "max" : [1247], "min" : [0]}, {"bufferView" : 1, "byteOffset" : 0, "componentType" : 5126, "count" : 1248, "type" : "VEC3", "max" : [4.183882713317871, 4.383835792541504, 31.148174285888672], "min" : [-4.201359748840332, -4.301889896392822, -2.3935530180096976E-07], "name" : "POSITION"}, {"bufferView" : 1, "byteOffset" : 12, "componentType" : 5126, "count" : 1248, "type" : "VEC3", "max" : [1.0000044107437134, 1.0000044107437134, 1.0000044107437134], "min" : [-1.0000044107437134, -1.0000044107437134, -0.9982315301895142], "name" : "NORMAL"}, {"bufferView" : 1, "byteOffset" : 24, "componentType" : 5126, "count" : 1248, "type" : "VEC2", "max" : [0.9996710419654846, 1], "min" : [0, -0.12839865684509277], "name" : "TEXCOORD_0"}], "asset" : {"generator" : "Aspose.3D 25.3.0", "version" : "2.0"}, "buffers" : [{"uri" : "data:application/octet-stream;base64,", "byteLength" : 43772}], "bufferViews" : [{"buffer" : 0, "byteOffset" : 0, "byteLength" : 3828, "target" : 34963}, {"buffer" : 0, "byteOffset" : 3832, "byteLength" : 39936, "byteStride" : 32, "target" : 34962}], "images" : [{"uri" : "data:image/jpeg;base64,"}], "materials" : [{"name" : "Material.001", "pbrMetallicRoughness" : {"baseColorFactor" : [1, 1, 1, 1], "baseColorTexture" : {"index" : 0, "texCoord" : 0}, "metallicFactor" : 1, "roughnessFactor" : 1}, "emissiveFactor" : [0, 0, 0], "alphaMode" : "OPAQUE", "doubleSided" : false}], "meshes" : [{"primitives" : [{"attributes" : {"POSITION" : 1, "NORMAL" : 2, "TEXCOORD_0" : 3}, "indices" : 0, "material" : 0, "mode" : 4}], "name" : "Circle"}], "nodes" : [{"matrix" : [-2.83173117520564E-06, -64.78245544433581, 2.831731294249183E-06, 0, -64.78245544433513, 2.8317316027851403E-06, 9.78187862733752E-06, 0, -9.781878751116432E-06, -2.831730866669636E-06, -64.78245544433513, 0, 309.567626953125, 342.2286682128906, 1009.4945678710938, 1], "mesh" : 0, "name" : "AGM88"}], "samplers" : [{"magFilter" : 9729, "minFilter" : 9729, "wrapS" : 10497, "wrapT" : 10497}], "scene" : 0, "scenes" : [{"nodes" : [0]}], "textures" : [{"sampler" : 0, "source" : 0, "name" : "base_color_texture"}]}