{"accessors" : [{"bufferView" : 0, "byteOffset" : 0, "componentType" : 5123, "count" : 2064, "type" : "SCALAR", "max" : [1375], "min" : [0]}, {"bufferView" : 1, "byteOffset" : 0, "componentType" : 5126, "count" : 1376, "type" : "VEC3", "max" : [0.46178025007247925, 0.4236862063407898, 3.213261365890503], "min" : [-0.46178025007247925, -0.41687649488449097, -2.6771693229675293], "name" : "POSITION"}, {"bufferView" : 1, "byteOffset" : 12, "componentType" : 5126, "count" : 1376, "type" : "VEC3", "max" : [0.9998474717140198, 0.9998475909233093, 0.9615142345428467], "min" : [-0.9998474717140198, -0.9998474717140198, -0.838222324848175], "name" : "NORMAL"}, {"bufferView" : 1, "byteOffset" : 24, "componentType" : 5126, "count" : 1376, "type" : "VEC2", "max" : [0.994378387928009, 1], "min" : [0, 0.3848339915275574], "name" : "TEXCOORD_0"}, {"bufferView" : 0, "byteOffset" : 4128, "componentType" : 5123, "count" : 2064, "type" : "SCALAR", "max" : [1375], "min" : [0]}, {"bufferView" : 2, "byteOffset" : 0, "componentType" : 5126, "count" : 1376, "type" : "VEC3", "max" : [0.46178025007247925, 0.4236862063407898, 3.213261365890503], "min" : [-0.46178025007247925, -0.41687649488449097, -2.6771693229675293], "name" : "POSITION"}, {"bufferView" : 2, "byteOffset" : 12, "componentType" : 5126, "count" : 1376, "type" : "VEC3", "max" : [0.9998474717140198, 0.9998475909233093, 0.9615142345428467], "min" : [-0.9998474717140198, -0.9998474717140198, -0.838222324848175], "name" : "NORMAL"}, {"bufferView" : 2, "byteOffset" : 24, "componentType" : 5126, "count" : 1376, "type" : "VEC2", "max" : [0.994378387928009, 1], "min" : [0, 0.3848339915275574], "name" : "TEXCOORD_0"}], "asset" : {"generator" : "Aspose.3D 25.3.0", "version" : "2.0"}, "buffers" : [{"uri" : "data:application/octet-stream;base64,", "byteLength" : 96332}], "bufferViews" : [{"buffer" : 0, "byteOffset" : 0, "byteLength" : 8256, "target" : 34963}, {"buffer" : 0, "byteOffset" : 8260, "byteLength" : 44032, "byteStride" : 32, "target" : 34962}, {"buffer" : 0, "byteOffset" : 52296, "byteLength" : 44032, "byteStride" : 32, "target" : 34962}], "images" : [{"uri" : "data:image/png;base64,"}, {"uri" : "data:image/png;base64,"}], "materials" : [{"name" : "Material.001", "pbrMetallicRoughness" : {"baseColorFactor" : [1, 1, 1, 1], "baseColorTexture" : {"index" : 0, "texCoord" : 0}, "metallicFactor" : 1, "roughnessFactor" : 1}, "emissiveFactor" : [0, 0, 0], "alphaMode" : "OPAQUE", "doubleSided" : false}, {"name" : "Material.004", "pbrMetallicRoughness" : {"baseColorFactor" : [1, 1, 1, 1], "baseColorTexture" : {"index" : 1, "texCoord" : 0}, "metallicFactor" : 1, "roughnessFactor" : 1}, "emissiveFactor" : [0, 0, 0], "alphaMode" : "OPAQUE", "doubleSided" : false}], "meshes" : [{"primitives" : [{"attributes" : {"POSITION" : 1, "NORMAL" : 2, "TEXCOORD_0" : 3}, "indices" : 0, "material" : 0, "mode" : 4}], "name" : "Circle"}, {"primitives" : [{"attributes" : {"POSITION" : 5, "NORMAL" : 6, "TEXCOORD_0" : 7}, "indices" : 4, "material" : 1, "mode" : 4}], "name" : "Circle.001"}], "nodes" : [{"matrix" : [-0.26954433002498, -3.505283054442856E-13, 74.14298843552007, 0, -3.240907579065646E-06, 74.14346313476555, -1.1781859500434499E-08, 0, -74.14298843552, -3.2409296616198397E-06, -0.2695443300249798, 0, -5.174660682678223, 44.40606689453125, -184.74769592285156, 1], "mesh" : 0, "name" : "bomb1"}, {"matrix" : [-0.26954433002498, -3.505283054442856E-13, 74.14298843552007, 0, -3.240907579065646E-06, 74.14346313476555, -1.1781859500434499E-08, 0, -74.14298843552, -3.2409296616198397E-06, -0.2695443300249798, 0, -5.174660682678223, 44.40606689453125, 193.3107147216797, 1], "mesh" : 1, "name" : "bomb2"}], "samplers" : [{"magFilter" : 9729, "minFilter" : 9729, "wrapS" : 10497, "wrapT" : 10497}, {"magFilter" : 9729, "minFilter" : 9729, "wrapS" : 10497, "wrapT" : 10497}], "scene" : 0, "scenes" : [{"nodes" : [0, 1]}], "textures" : [{"sampler" : 0, "source" : 0, "name" : "base_color_texture"}, {"sampler" : 1, "source" : 1, "name" : "base_color_texture"}]}