{"accessors" : [{"bufferView" : 0, "byteOffset" : 0, "componentType" : 5123, "count" : 2064, "type" : "SCALAR", "max" : [1375], "min" : [0]}, {"bufferView" : 1, "byteOffset" : 0, "componentType" : 5126, "count" : 1376, "type" : "VEC3", "max" : [0.46178025007247925, 0.42584553360939026, 2.844456672668457], "min" : [-0.46178025007247925, -0.4147171676158905, -3.045974016189575], "name" : "POSITION"}, {"bufferView" : 1, "byteOffset" : 12, "componentType" : 5126, "count" : 1376, "type" : "VEC3", "max" : [0.9998474717140198, 0.9998475909233093, 0.9615142941474915], "min" : [-0.9998474717140198, -0.9998474717140198, -0.8382225036621094], "name" : "NORMAL"}, {"bufferView" : 1, "byteOffset" : 24, "componentType" : 5126, "count" : 1376, "type" : "VEC2", "max" : [0.994378387928009, 1], "min" : [0, 0.3848339915275574], "name" : "TEXCOORD_0"}], "asset" : {"generator" : "Aspose.3D 25.3.0", "version" : "2.0"}, "buffers" : [{"uri" : "data:application/octet-stream;base64,", "byteLength" : 48168}], "bufferViews" : [{"buffer" : 0, "byteOffset" : 0, "byteLength" : 4128, "target" : 34963}, {"buffer" : 0, "byteOffset" : 4132, "byteLength" : 44032, "byteStride" : 32, "target" : 34962}], "images" : [{"uri" : "data:image/png;base64,"}], "materials" : [{"name" : "Material.001", "pbrMetallicRoughness" : {"baseColorFactor" : [1, 1, 1, 1], "baseColorTexture" : {"index" : 0, "texCoord" : 0}, "metallicFactor" : 1, "roughnessFactor" : 1}, "emissiveFactor" : [0, 0, 0], "alphaMode" : "OPAQUE", "doubleSided" : false}], "meshes" : [{"primitives" : [{"attributes" : {"POSITION" : 1, "NORMAL" : 2, "TEXCOORD_0" : 3}, "indices" : 0, "material" : 0, "mode" : 4}], "name" : "Circle"}], "nodes" : [{"matrix" : [-0.4629638788737563, 4.15007612667181E-13, 99.99892068701547, 0, -4.370999855552779E-06, 99.9999999999999, -2.0236783902682408E-08, 0, -99.99892068701537, -4.371046367783499E-06, -0.46296387887375584, 0, -7.685679443062798E-16, -3.46132230758667, -1.1537741422653198, 1], "mesh" : 0, "name" : "Circle"}], "samplers" : [{"magFilter" : 9729, "minFilter" : 9729, "wrapS" : 10497, "wrapT" : 10497}], "scene" : 0, "scenes" : [{"nodes" : [0]}], "textures" : [{"sampler" : 0, "source" : 0, "name" : "base_color_texture"}]}